<?xml version="1.0" encoding="UTF-8"?>
<!DOCTYPE svg PUBLIC "-//W3C//DTD SVG 1.1//EN" "http://www.w3.org/Graphics/SVG/1.1/DTD/svg11.dtd">
<svg xmlns="http://www.w3.org/2000/svg" version="1.1" width="3825px" height="759px" style="shape-rendering:geometricPrecision; text-rendering:geometricPrecision; image-rendering:optimizeQuality; fill-rule:evenodd; clip-rule:evenodd" xmlns:xlink="http://www.w3.org/1999/xlink">
<g><path style="opacity:0.992" fill="#000000" d="M 472.5,-0.5 C 512.5,-0.5 552.5,-0.5 592.5,-0.5C 592.5,38.8333 592.5,78.1667 592.5,117.5C 631.5,117.5 670.5,117.5 709.5,117.5C 709.5,94.1667 709.5,70.8333 709.5,47.5C 733.167,47.5 756.833,47.5 780.5,47.5C 780.5,71.1667 780.5,94.8333 780.5,118.5C 757.167,118.5 733.833,118.5 710.5,118.5C 710.5,157.5 710.5,196.5 710.5,235.5C 749.833,235.5 789.167,235.5 828.5,235.5C 828.5,275.5 828.5,315.5 828.5,355.5C 809.167,355.5 789.833,355.5 770.5,355.5C 770.5,415.167 770.5,474.833 770.5,534.5C 711.167,534.5 651.833,534.5 592.5,534.5C 592.5,553.833 592.5,573.167 592.5,592.5C 566.5,592.5 540.5,592.5 514.5,592.5C 514.5,566.5 514.5,540.5 514.5,514.5C 539.833,514.5 565.167,514.5 590.5,514.5C 590.5,460.833 590.5,407.167 590.5,353.5C 630.167,353.5 669.833,353.5 709.5,353.5C 709.5,314.833 709.5,276.167 709.5,237.5C 669.833,237.5 630.167,237.5 590.5,237.5C 590.5,197.833 590.5,158.167 590.5,118.5C 560.5,118.5 530.5,118.5 500.5,118.5C 500.5,157.5 500.5,196.5 500.5,235.5C 521.833,235.5 543.167,235.5 564.5,235.5C 564.5,266.167 564.5,296.833 564.5,327.5C 533.833,327.5 503.167,327.5 472.5,327.5C 472.5,306.5 472.5,285.5 472.5,264.5C 424.167,264.5 375.833,264.5 327.5,264.5C 327.5,206.5 327.5,148.5 327.5,90.5C 375.833,90.5 424.167,90.5 472.5,90.5C 472.5,60.1667 472.5,29.8333 472.5,-0.5 Z"/></g>
<g><path style="opacity:0.995" fill="#000000" d="M -0.5,417.5 C -0.5,356.833 -0.5,296.167 -0.5,235.5C 38.8333,235.5 78.1667,235.5 117.5,235.5C 117.5,196.5 117.5,157.5 117.5,118.5C 101.167,118.5 84.8333,118.5 68.5,118.5C 68.5,101.833 68.5,85.1667 68.5,68.5C 85.1667,68.5 101.833,68.5 118.5,68.5C 118.5,84.8333 118.5,101.167 118.5,117.5C 150.167,117.5 181.833,117.5 213.5,117.5C 213.5,91.1667 213.5,64.8333 213.5,38.5C 240.167,38.5 266.833,38.5 293.5,38.5C 293.5,65.1667 293.5,91.8333 293.5,118.5C 274.5,118.5 255.5,118.5 236.5,118.5C 236.5,158.167 236.5,197.833 236.5,237.5C 218.167,237.5 199.833,237.5 181.5,237.5C 181.5,276.5 181.5,315.5 181.5,354.5C 199.5,354.5 217.5,354.5 235.5,354.5C 235.5,335.5 235.5,316.5 235.5,297.5C 254.833,297.5 274.167,297.5 293.5,297.5C 293.5,316.833 293.5,336.167 293.5,355.5C 274.5,355.5 255.5,355.5 236.5,355.5C 236.5,394.5 236.5,433.5 236.5,472.5C 261.167,472.5 285.833,472.5 310.5,472.5C 310.5,497.5 310.5,522.5 310.5,547.5C 285.5,547.5 260.5,547.5 235.5,547.5C 235.5,522.833 235.5,498.167 235.5,473.5C 196.5,473.5 157.5,473.5 118.5,473.5C 118.5,500.833 118.5,528.167 118.5,555.5C 91.1667,555.5 63.8333,555.5 36.5,555.5C 36.5,527.833 36.5,500.167 36.5,472.5C 63.5,472.5 90.5,472.5 117.5,472.5C 117.5,454.167 117.5,435.833 117.5,417.5C 78.1667,417.5 38.8333,417.5 -0.5,417.5 Z"/></g>
<g><path style="opacity:0.987" fill="#000000" d="M 2064.5,239.5 C 2086.83,239.5 2109.17,239.5 2131.5,239.5C 2131.33,271.502 2131.5,303.502 2132,335.5C 2148.98,316.271 2170.48,306.604 2196.5,306.5C 2247,309.829 2274.16,336.829 2278,387.5C 2278.5,433.165 2278.67,478.832 2278.5,524.5C 2256.5,524.5 2234.5,524.5 2212.5,524.5C 2212.96,481.14 2212.46,437.806 2211,394.5C 2206.11,373.939 2193.11,363.272 2172,362.5C 2148.98,363.189 2135.65,374.856 2132,397.5C 2131.5,439.832 2131.33,482.165 2131.5,524.5C 2109.17,524.5 2086.83,524.5 2064.5,524.5C 2064.5,429.5 2064.5,334.5 2064.5,239.5 Z"/></g>
<g><path style="opacity:0.987" fill="#000000" d="M 3824.5,387.5 C 3824.5,433.167 3824.5,478.833 3824.5,524.5C 3802.5,524.5 3780.5,524.5 3758.5,524.5C 3758.96,481.137 3758.46,437.803 3757,394.5C 3749.7,368.92 3732.86,358.753 3706.5,364C 3689.65,368.855 3680.15,380.022 3678,397.5C 3677.5,439.832 3677.33,482.165 3677.5,524.5C 3655.17,524.5 3632.83,524.5 3610.5,524.5C 3610.5,429.5 3610.5,334.5 3610.5,239.5C 3632.83,239.5 3655.17,239.5 3677.5,239.5C 3677.33,271.502 3677.5,303.502 3678,335.5C 3694.98,316.271 3716.48,306.604 3742.5,306.5C 3780.4,307.267 3805.9,325.267 3819,360.5C 3821.5,369.51 3823.33,378.51 3824.5,387.5 Z"/></g>
<g><path style="opacity:0.99" fill="#000000" d="M 1025.5,250.5 C 1065.97,249.037 1100.8,262.037 1130,289.5C 1144.57,305.636 1154.74,324.303 1160.5,345.5C 1135.83,346.833 1111.17,346.833 1086.5,345.5C 1074.98,323.142 1056.48,311.809 1031,311.5C 993.36,314.803 971.36,335.137 965,372.5C 961.084,397.02 965.75,419.687 979,440.5C 994.98,459.612 1015.48,467.779 1040.5,465C 1061.53,462.121 1076.87,451.288 1086.5,432.5C 1111.16,431.334 1135.83,431.167 1160.5,432C 1143.74,486.416 1107.08,517.416 1050.5,525C 1012.38,529.471 977.717,520.804 946.5,499C 917.312,475.133 900.812,444.3 897,406.5C 892.263,365.094 902.596,328.094 928,295.5C 954.395,267.311 986.895,252.311 1025.5,250.5 Z"/></g>
<g><path style="opacity:0.996" fill="#000000" d="M 3033.5,257.5 C 3055.5,257.5 3077.5,257.5 3099.5,257.5C 3099.5,274.833 3099.5,292.167 3099.5,309.5C 3113.83,309.5 3128.17,309.5 3142.5,309.5C 3142.5,327.833 3142.5,346.167 3142.5,364.5C 3128.17,364.5 3113.83,364.5 3099.5,364.5C 3099.05,395.536 3099.55,426.536 3101,457.5C 3103.16,463.323 3107.32,466.49 3113.5,467C 3123.49,467.5 3133.49,467.666 3143.5,467.5C 3143.5,486.5 3143.5,505.5 3143.5,524.5C 3130.5,524.667 3117.5,524.5 3104.5,524C 3086.54,524.097 3070.21,519.097 3055.5,509C 3042.28,496.386 3035.11,480.886 3034,462.5C 3033.5,429.835 3033.33,397.168 3033.5,364.5C 3024.83,364.5 3016.17,364.5 3007.5,364.5C 3007.5,346.167 3007.5,327.833 3007.5,309.5C 3016.17,309.5 3024.83,309.5 3033.5,309.5C 3033.5,292.167 3033.5,274.833 3033.5,257.5 Z"/></g>
<g><path style="opacity:0.993" fill="#000000" d="M 1252.5,306.5 C 1281.04,302.746 1305.54,310.746 1326,330.5C 1327.67,332.833 1329.33,335.167 1331,337.5C 1331.5,328.173 1331.67,318.839 1331.5,309.5C 1353.5,309.5 1375.5,309.5 1397.5,309.5C 1397.5,381.167 1397.5,452.833 1397.5,524.5C 1375.5,524.5 1353.5,524.5 1331.5,524.5C 1331.67,514.828 1331.5,505.161 1331,495.5C 1314.65,516.922 1292.82,527.589 1265.5,527.5C 1223.16,524.925 1194.33,503.925 1179,464.5C 1167.36,429.481 1168.36,394.814 1182,360.5C 1196.42,330.551 1219.92,312.551 1252.5,306.5 Z M 1276.5,364.5 C 1311.56,363.888 1329.89,381.221 1331.5,416.5C 1330.94,447.545 1315.44,465.211 1285,469.5C 1257.28,466.113 1241.95,450.447 1239,422.5C 1236.41,398.179 1245.58,380.012 1266.5,368C 1269.98,366.897 1273.31,365.731 1276.5,364.5 Z"/></g>
<g><path style="opacity:0.99" fill="#000000" d="M 1551.5,306.5 C 1575.51,305.329 1596.84,312.163 1615.5,327C 1621.1,332.593 1625.93,338.76 1630,345.5C 1655.38,312.415 1688.55,300.582 1729.5,310C 1764.98,321.157 1784.81,345.324 1789,382.5C 1789.5,429.832 1789.67,477.165 1789.5,524.5C 1767.5,524.5 1745.5,524.5 1723.5,524.5C 1723.67,482.165 1723.5,439.832 1723,397.5C 1715.97,370.885 1698.8,360.385 1671.5,366C 1654.06,371.353 1644.56,383.186 1643,401.5C 1642.5,442.499 1642.33,483.499 1642.5,524.5C 1620.5,524.5 1598.5,524.5 1576.5,524.5C 1576.97,480.8 1576.47,437.133 1575,393.5C 1569.28,374.132 1556.28,364.465 1536,364.5C 1512.99,365.176 1499.66,376.843 1496,399.5C 1495.5,441.165 1495.33,482.832 1495.5,524.5C 1473.17,524.5 1450.83,524.5 1428.5,524.5C 1428.5,452.833 1428.5,381.167 1428.5,309.5C 1450.83,309.5 1473.17,309.5 1495.5,309.5C 1495.33,317.84 1495.5,326.173 1496,334.5C 1504.8,323.346 1515.96,315.513 1529.5,311C 1536.88,309.024 1544.22,307.524 1551.5,306.5 Z"/></g>
<g><path style="opacity:0.988" fill="#000000" d="M 1937.5,306.5 C 1993.63,303.464 2028.8,329.131 2043,383.5C 2050.49,418.099 2046.16,451.099 2030,482.5C 2004.2,520.995 1968.7,534.495 1923.5,523C 1908.53,518.03 1896.36,509.197 1887,496.5C 1886.5,539.832 1886.33,583.165 1886.5,626.5C 1864.17,626.5 1841.83,626.5 1819.5,626.5C 1819.5,520.833 1819.5,415.167 1819.5,309.5C 1841.83,309.5 1864.17,309.5 1886.5,309.5C 1886.33,318.506 1886.5,327.506 1887,336.5C 1899.96,319.939 1916.79,309.939 1937.5,306.5 Z M 1924.5,364.5 C 1954.51,363.013 1972.34,377.013 1978,406.5C 1981.62,429.34 1974.45,447.84 1956.5,462C 1934.97,473.31 1915.47,470.477 1898,453.5C 1882.25,430.3 1881.58,406.633 1896,382.5C 1903.37,373.067 1912.87,367.067 1924.5,364.5 Z"/></g>
<g><path style="opacity:0.99" fill="#000000" d="M 2390.5,306.5 C 2420.86,303.269 2448.86,309.769 2474.5,326C 2497.34,342.83 2511.18,365.33 2516,393.5C 2522.61,430.483 2514.28,463.483 2491,492.5C 2462.06,520.256 2427.56,531.423 2387.5,526C 2338.44,518.605 2308.27,490.772 2297,442.5C 2290.62,410.05 2295.96,379.717 2313,351.5C 2332.42,325.538 2358.25,310.538 2390.5,306.5 Z M 2402.5,363.5 C 2424.51,363.586 2439.35,373.919 2447,394.5C 2453.03,414.903 2450.7,434.237 2440,452.5C 2425.91,468.641 2408.74,473.141 2388.5,466C 2373.42,457.7 2364.92,444.866 2363,427.5C 2360.54,410.23 2363.88,394.23 2373,379.5C 2380.86,370.325 2390.69,364.991 2402.5,363.5 Z"/></g>
<g><path style="opacity:0.984" fill="#000000" d="M 2664.5,306.5 C 2666.5,306.5 2668.5,306.5 2670.5,306.5C 2670.5,330.167 2670.5,353.833 2670.5,377.5C 2660.16,377.334 2649.83,377.5 2639.5,378C 2619.22,380.278 2607.39,391.444 2604,411.5C 2603.5,449.165 2603.33,486.832 2603.5,524.5C 2581.17,524.5 2558.83,524.5 2536.5,524.5C 2536.5,452.833 2536.5,381.167 2536.5,309.5C 2558.83,309.5 2581.17,309.5 2603.5,309.5C 2603.33,320.505 2603.5,331.505 2604,342.5C 2618.8,321.353 2638.97,309.353 2664.5,306.5 Z"/></g>
<g><path style="opacity:0.989" fill="#000000" d="M 2753.5,306.5 C 2777.73,303.557 2799.73,309.057 2819.5,323C 2824.41,327.244 2828.58,332.077 2832,337.5C 2832.5,328.173 2832.67,318.839 2832.5,309.5C 2854.83,309.5 2877.17,309.5 2899.5,309.5C 2899.5,381.167 2899.5,452.833 2899.5,524.5C 2877.17,524.5 2854.83,524.5 2832.5,524.5C 2832.67,515.161 2832.5,505.827 2832,496.5C 2815.34,516.995 2793.67,527.329 2767,527.5C 2725.31,525.474 2696.65,505.141 2681,466.5C 2669.4,432.041 2669.73,397.708 2682,363.5C 2696.02,331.939 2719.85,312.939 2753.5,306.5 Z M 2778.5,364.5 C 2809.39,363.223 2827.23,377.89 2832,408.5C 2834.79,430.496 2827.62,448.329 2810.5,462C 2790.21,472.777 2771.38,470.61 2754,455.5C 2740.84,438.861 2736.84,420.194 2742,399.5C 2747.24,380.425 2759.4,368.759 2778.5,364.5 Z"/></g>
<g><path style="opacity:0.991" fill="#000000" d="M 3242.5,306.5 C 3274,302.96 3302.67,310.126 3328.5,328C 3349.69,345.866 3361.85,368.699 3365,396.5C 3365.67,408.167 3365.67,419.833 3365,431.5C 3315.57,432.497 3266.07,432.831 3216.5,432.5C 3221.51,465.183 3240.18,477.683 3272.5,470C 3279.97,466.361 3285.64,460.861 3289.5,453.5C 3313.49,452.334 3337.49,452.167 3361.5,453C 3350.25,490.577 3325.59,514.244 3287.5,524C 3251.06,532.153 3217.72,525.486 3187.5,504C 3167.73,486.962 3155.89,465.462 3152,439.5C 3146.42,405.923 3152.76,374.923 3171,346.5C 3189.52,323.658 3213.35,310.325 3242.5,306.5 Z M 3252.5,359.5 C 3268.39,358.292 3281.55,363.625 3292,375.5C 3295.77,381.653 3297.61,388.319 3297.5,395.5C 3270.83,395.5 3244.17,395.5 3217.5,395.5C 3221.12,375.549 3232.79,363.549 3252.5,359.5 Z"/></g>
<g><path style="opacity:0.989" fill="#000000" d="M 3472.5,306.5 C 3502.68,302.898 3530.34,309.398 3555.5,326C 3574.95,341.882 3587.28,362.216 3592.5,387C 3568.83,387.667 3545.17,387.667 3521.5,387C 3512.45,366.809 3497.12,359.476 3475.5,365C 3460.8,372.183 3452.3,384.016 3450,400.5C 3446.62,419.443 3449.28,437.443 3458,454.5C 3469.33,468.83 3483.83,473.33 3501.5,468C 3511.13,463.42 3517.8,456.087 3521.5,446C 3545.17,445.167 3568.84,445.334 3592.5,446.5C 3577.89,498.742 3543.39,525.742 3489,527.5C 3456.11,527.88 3428.44,516.213 3406,492.5C 3388.64,470.428 3380.48,445.262 3381.5,417C 3381.91,355.121 3412.24,318.288 3472.5,306.5 Z"/></g>
<g><path style="opacity:0.994" fill="#000000" d="M 490.5,758.5 C 422.833,758.5 355.167,758.5 287.5,758.5C 302.314,744.246 313.147,727.246 320,707.5C 335.17,661.315 344.837,613.982 349,565.5C 351.053,545.866 352.719,526.199 354,506.5C 354.5,455.834 354.667,405.168 354.5,354.5C 406.167,354.5 457.833,354.5 509.5,354.5C 509.5,406.167 509.5,457.833 509.5,509.5C 481.167,509.5 452.833,509.5 424.5,509.5C 427.209,566.961 435.375,623.628 449,679.5C 455.022,705.607 466.022,729.274 482,750.5C 485.003,753.067 487.836,755.734 490.5,758.5 Z"/></g>
<g><path style="opacity:0.983" fill="#000000" d="M 2956.5,454.5 C 2971.46,453.538 2983.96,458.538 2994,469.5C 3001.84,482.438 3002.51,495.771 2996,509.5C 2984.38,524.486 2969.22,529.986 2950.5,526C 2928,519.513 2918.83,504.68 2923,481.5C 2925.91,470.255 2932.74,462.422 2943.5,458C 2947.92,456.648 2952.25,455.481 2956.5,454.5 Z"/></g>
</svg>
